<?xml version="1.0" encoding="UTF-8" standalone="no"?>
<svg
   xmlns:dc="http://purl.org/dc/elements/1.1/"
   xmlns:cc="http://creativecommons.org/ns#"
   xmlns:rdf="http://www.w3.org/1999/02/22-rdf-syntax-ns#"
   xmlns:svg="http://www.w3.org/2000/svg"
   xmlns="http://www.w3.org/2000/svg"
   viewBox="0 0 377.94666 311.69333"
   height="311.69333"
   width="377.94666"
   xml:space="preserve"
   id="svg2"
   version="1.1"><metadata
     id="metadata8"><rdf:RDF><cc:Work
         rdf:about=""><dc:format>image/svg+xml</dc:format><dc:type
           rdf:resource="http://purl.org/dc/dcmitype/StillImage" /></cc:Work></rdf:RDF></metadata><defs
     id="defs6"><clipPath
       id="clipPath20"
       clipPathUnits="userSpaceOnUse"><path
         id="path18"
         d="M 0,2338 H 2830 V 0 H 0 Z" /></clipPath><clipPath
       id="clipPath54"
       clipPathUnits="userSpaceOnUse"><path
         id="path52"
         d="m 2251.29,1996.7 c 1.84,-5.07 3.51,-10.27 4.84,-15.47 7.54,-29.96 5.98,-59.37 -3.79,-88.04 130.08,-107.27 206.76,-239.57 206.76,-382.92 0,-357.8 -479.14,-647.918 -1070.14,-647.918 -591.038,0 -1070.132,290.118 -1070.132,647.918 0,143.23 76.758,275.65 206.68,382.92 -9.688,28.67 -11.25,58.08 -3.711,88.04 1.367,5.32 3.594,10.94 6.211,16.53 -177.5,-126.45 -285.117,-292.19 -285.117,-473.7 0,-396.32 513.078,-717.572 1146.069,-717.572 632.92,0 1146.08,321.252 1146.08,717.572 0,181.12 -107.19,346.47 -283.75,472.64" /></clipPath><linearGradient
       id="linearGradient64"
       spreadMethod="pad"
       gradientTransform="matrix(-3.96e-5,906.552,2332.15,1.019e-4,222.891,895.12)"
       gradientUnits="userSpaceOnUse"
       y2="0"
       x2="1"
       y1="0"
       x1="0"><stop
         id="stop58"
         offset="0"
         style="stop-opacity:1;stop-color:#edf2ee" /><stop
         id="stop60"
         offset="0.44"
         style="stop-opacity:1;stop-color:#c4d0c8" /><stop
         id="stop62"
         offset="1"
         style="stop-opacity:1;stop-color:#525b5c" /></linearGradient><clipPath
       id="clipPath74"
       clipPathUnits="userSpaceOnUse"><path
         id="path72"
         d="m 1548.18,1734.36 c -50.5,-3.79 -103.75,-5.86 -159.25,-5.86 -55.47,0 -108.68,2.07 -159.18,5.86 h -0.16 l -33.01,-23.98 c 60.9,-5.32 125.2,-8.33 192.38,-8.33 67.19,0 131.49,3.01 192.43,8.33 z m 585.41,251.41 c -40.23,132.96 -371.85,230.62 -744.63,230.62 -372.69,0 -704.319,-97.66 -744.558,-230.62 -34.922,-115.36 155.703,-222.11 456.438,-264.46 l -26.13,31.8 c -243.284,41.41 -387.886,129.69 -354.522,223.55 40.425,113.95 334.092,196.49 668.742,196.49 334.64,0 628.37,-82.54 668.77,-196.49 33.32,-93.86 -111.22,-182.14 -354.56,-223.55 l -26.05,-31.8 c 300.64,42.35 491.39,149.1 456.5,264.46" /></clipPath><linearGradient
       id="linearGradient84"
       spreadMethod="pad"
       gradientTransform="matrix(-2.15e-5,491.242,1598.99,6.99e-5,589.482,1585.87)"
       gradientUnits="userSpaceOnUse"
       y2="0"
       x2="1"
       y1="0"
       x1="0"><stop
         id="stop78"
         offset="0"
         style="stop-opacity:1;stop-color:#edf2ee" /><stop
         id="stop80"
         offset="0.44"
         style="stop-opacity:1;stop-color:#c4d0c8" /><stop
         id="stop82"
         offset="1"
         style="stop-opacity:1;stop-color:#525b5c" /></linearGradient><clipPath
       id="clipPath94"
       clipPathUnits="userSpaceOnUse"><path
         id="path92"
         d="m 1230.14,1734.36 c 27.93,155.19 88.51,252.19 158.79,252.19 70.35,0 130.89,-97 158.86,-252.19 h 0.55 l 32.66,-23.71 c -27.58,204.96 -103.13,335.94 -192.04,335.94 -88.98,0 -164.49,-130.98 -192.03,-335.94 l 32.66,23.71 h 0.55" /></clipPath><linearGradient
       id="linearGradient104"
       spreadMethod="pad"
       gradientTransform="matrix(-306.717,257.366,360.326,429.419,1404.2,1499.95)"
       gradientUnits="userSpaceOnUse"
       y2="0"
       x2="1"
       y1="0"
       x1="0"><stop
         id="stop98"
         offset="0"
         style="stop-opacity:1;stop-color:#edf2ee" /><stop
         id="stop100"
         offset="0.44"
         style="stop-opacity:1;stop-color:#c4d0c8" /><stop
         id="stop102"
         offset="1"
         style="stop-opacity:1;stop-color:#525b5c" /></linearGradient><clipPath
       id="clipPath114"
       clipPathUnits="userSpaceOnUse"><path
         id="path112"
         d="m 1590.92,1594.52 -26.72,-48.32 c 0,-3.52 0.16,-7.14 0.16,-10.81 0,-257.26 -78.68,-452.34 -175.43,-452.34 -96.84,0 -175.36,195.08 -175.36,452.34 0,4.06 0.08,8.07 0.16,11.98 l -26.76,47.15 c -0.78,-19.3 -1.17,-38.83 -1.17,-58.86 0,-291.67 90.94,-512.61 203.16,-512.61 112.23,0 203.25,220.94 203.25,512.61 0,20.03 -0.51,39.56 -1.29,58.86" /></clipPath><linearGradient
       id="linearGradient124"
       spreadMethod="pad"
       gradientTransform="matrix(-447.229,258.208,376.374,651.898,1372.8,883.54)"
       gradientUnits="userSpaceOnUse"
       y2="0"
       x2="1"
       y1="0"
       x1="0"><stop
         id="stop118"
         offset="0"
         style="stop-opacity:1;stop-color:#edf2ee" /><stop
         id="stop120"
         offset="0.44"
         style="stop-opacity:1;stop-color:#c4d0c8" /><stop
         id="stop122"
         offset="1"
         style="stop-opacity:1;stop-color:#525b5c" /></linearGradient><clipPath
       id="clipPath134"
       clipPathUnits="userSpaceOnUse"><path
         id="path132"
         d="m 1101.27,1721.2 c 38.44,284.88 152.69,495.19 287.69,495.19 -144.72,0 -268.08,-186.33 -313.86,-463.83 l 25.78,-31.36 h 0.39" /></clipPath><linearGradient
       id="linearGradient144"
       spreadMethod="pad"
       gradientTransform="matrix(-3.41e-5,-779.14,-353.867,1.55e-5,1408.96,2317.76)"
       gradientUnits="userSpaceOnUse"
       y2="0"
       x2="1"
       y1="0"
       x1="0"><stop
         id="stop138"
         offset="0"
         style="stop-opacity:1;stop-color:#edf2ee" /><stop
         id="stop140"
         offset="0.44"
         style="stop-opacity:1;stop-color:#c4d0c8" /><stop
         id="stop142"
         offset="1"
         style="stop-opacity:1;stop-color:#525b5c" /></linearGradient><clipPath
       id="clipPath154"
       clipPathUnits="userSpaceOnUse"><path
         id="path152"
         d="m 1676.7,1721.2 h 0.27 l 25.78,31.36 c -45.7,277.5 -169.14,463.83 -313.79,463.83 135,0 249.34,-210.31 287.74,-495.19" /></clipPath><linearGradient
       id="linearGradient164"
       spreadMethod="pad"
       gradientTransform="matrix(-3.41e-5,-779.14,-353.789,1.55e-5,1722.75,2317.76)"
       gradientUnits="userSpaceOnUse"
       y2="0"
       x2="1"
       y1="0"
       x1="0"><stop
         id="stop158"
         offset="0"
         style="stop-opacity:1;stop-color:#edf2ee" /><stop
         id="stop160"
         offset="0.44"
         style="stop-opacity:1;stop-color:#c4d0c8" /><stop
         id="stop162"
         offset="1"
         style="stop-opacity:1;stop-color:#525b5c" /></linearGradient><clipPath
       id="clipPath174"
       clipPathUnits="userSpaceOnUse"><path
         id="path172"
         d="m 1720.72,1567.17 -32.81,39.18 h -0.27 c 1.83,-31.13 2.89,-62.77 2.89,-94.91 0,-389.33 -135.04,-704.952 -301.57,-704.952 186.72,0 332.82,292.732 332.82,704.952 0,18.87 -0.39,37.37 -1.06,55.73" /></clipPath><linearGradient
       id="linearGradient184"
       spreadMethod="pad"
       gradientTransform="matrix(-5.68e-5,-1300.35,-372.813,1.63e-5,1741.78,2324.32)"
       gradientUnits="userSpaceOnUse"
       y2="0"
       x2="1"
       y1="0"
       x1="0"><stop
         id="stop178"
         offset="0"
         style="stop-opacity:1;stop-color:#edf2ee" /><stop
         id="stop180"
         offset="0.44"
         style="stop-opacity:1;stop-color:#c4d0c8" /><stop
         id="stop182"
         offset="1"
         style="stop-opacity:1;stop-color:#525b5c" /></linearGradient><clipPath
       id="clipPath194"
       clipPathUnits="userSpaceOnUse"><path
         id="path192"
         d="m 1087.48,1511.44 c 0,32.14 1.06,63.78 2.85,94.91 h -0.23 l -32.89,-39.06 c -0.67,-18.48 -1.1,-36.98 -1.1,-55.85 0,-412.22 146.21,-704.952 332.85,-704.952 -166.44,0 -301.48,315.622 -301.48,704.952" /></clipPath><linearGradient
       id="linearGradient204"
       spreadMethod="pad"
       gradientTransform="matrix(-5.68e-5,-1300.35,-372.852,1.63e-5,1408.96,2324.32)"
       gradientUnits="userSpaceOnUse"
       y2="0"
       x2="1"
       y1="0"
       x1="0"><stop
         id="stop198"
         offset="0"
         style="stop-opacity:1;stop-color:#edf2ee" /><stop
         id="stop200"
         offset="0.44"
         style="stop-opacity:1;stop-color:#c4d0c8" /><stop
         id="stop202"
         offset="1"
         style="stop-opacity:1;stop-color:#525b5c" /></linearGradient><clipPath
       id="clipPath214"
       clipPathUnits="userSpaceOnUse"><path
         id="path212"
         d="M 0,0 H 2830 V 2338 H 0 Z" /></clipPath><clipPath
       id="clipPath226"
       clipPathUnits="userSpaceOnUse"><path
         id="path224"
         d="m 105.469,1522.11 c 0,439.32 574.597,795.56 1283.491,795.56 708.81,0 1283.42,-356.24 1283.42,-795.56 0,-439.45 -574.61,-795.54 -1283.42,-795.54 -708.894,0 -1283.491,356.09 -1283.491,795.54 z M 1388.96,806.488 c 632.92,0 1146.08,321.252 1146.08,717.572 0,396.35 -513.16,717.72 -1146.08,717.72 -632.991,0 -1146.108,-321.37 -1146.108,-717.72 0,-396.32 513.117,-717.572 1146.108,-717.572" /></clipPath><linearGradient
       id="linearGradient234"
       spreadMethod="pad"
       gradientTransform="matrix(-6.95e-5,-1591.11,-2606.91,1.14e-4,2692.38,2317.67)"
       gradientUnits="userSpaceOnUse"
       y2="0"
       x2="1"
       y1="0"
       x1="0"><stop
         id="stop230"
         offset="0"
         style="stop-opacity:1;stop-color:#edf2ee" /><stop
         id="stop232"
         offset="1"
         style="stop-opacity:1;stop-color:#3e4647" /></linearGradient><clipPath
       id="clipPath244"
       clipPathUnits="userSpaceOnUse"><path
         id="path242"
         d="m 1087.48,1511.44 c 0,385.26 135.04,704.95 301.48,704.95 166.53,0 301.57,-319.69 301.57,-704.95 0,-389.33 -135.04,-704.952 -301.57,-704.952 -166.52,0 -301.48,315.622 -301.48,704.952 z m 301.48,-488.39 c 112.23,0 203.25,220.94 203.25,512.49 0,302.57 -91.02,511.05 -203.25,511.05 -112.22,0 -203.16,-208.48 -203.16,-511.05 0,-291.55 90.94,-512.49 203.16,-512.49" /></clipPath><linearGradient
       id="linearGradient252"
       spreadMethod="pad"
       gradientTransform="matrix(-6.96e-5,-1591.22,-643.047,2.81e-5,1710.53,2317.76)"
       gradientUnits="userSpaceOnUse"
       y2="0"
       x2="1"
       y1="0"
       x1="0"><stop
         id="stop248"
         offset="0"
         style="stop-opacity:1;stop-color:#edf2ee" /><stop
         id="stop250"
         offset="1"
         style="stop-opacity:1;stop-color:#3e4647" /></linearGradient><clipPath
       id="clipPath262"
       clipPathUnits="userSpaceOnUse"><path
         id="path260"
         d="m 521.797,1981.23 c 33.086,130.98 433.144,321.6 867.163,321.6 433.99,0 820.3,-136.2 867.17,-321.6 52.46,-207.81 -333.08,-395.85 -867.17,-395.85 -534.175,0 -919.702,188.04 -867.163,395.85 z m 867.163,235.16 c -372.69,0 -704.319,-97.66 -744.558,-230.62 -45.078,-148.95 285.93,-283.72 744.558,-283.72 458.72,0 789.67,134.77 744.63,283.72 -40.23,132.96 -371.85,230.62 -744.63,230.62" /></clipPath><linearGradient
       id="linearGradient270"
       spreadMethod="pad"
       gradientTransform="matrix(-6.96e-5,-1591.16,-1879.34,8.21e-5,2328.59,2317.61)"
       gradientUnits="userSpaceOnUse"
       y2="0"
       x2="1"
       y1="0"
       x1="0"><stop
         id="stop266"
         offset="0"
         style="stop-opacity:1;stop-color:#edf2ee" /><stop
         id="stop268"
         offset="1"
         style="stop-opacity:1;stop-color:#3e4647" /></linearGradient><clipPath
       id="clipPath280"
       clipPathUnits="userSpaceOnUse"><path
         id="path278"
         d="m 1186.58,1594.91 0.24,-0.16 27.54,-48.55 c 56.05,-4.8 114.33,-7.53 174.6,-7.53 60.55,0 118.99,2.73 175.4,7.64 l 26.79,48.44 0.16,0.16 c -64.45,-6.14 -132.03,-9.53 -202.35,-9.53 -70.31,0 -137.92,3.39 -202.38,9.53 z m 1074.08,341.4 c -6.87,-148.59 -235.27,-280.23 -572.87,-329.84 l 0.12,-0.12 32.93,-39.33 c 330.33,59.37 547.64,205.23 539.82,369.29 z m -1743.394,0 c -7.813,-164.22 209.48,-309.92 539.744,-369.29 l 33.01,39.33 0.08,0.12 c -337.651,49.61 -565.881,181.25 -572.834,329.84" /></clipPath><linearGradient
       id="linearGradient288"
       spreadMethod="pad"
       gradientTransform="matrix(-1.98e-5,-453.476,-1799.02,7.86e-5,2288.48,1987.69)"
       gradientUnits="userSpaceOnUse"
       y2="0"
       x2="1"
       y1="0"
       x1="0"><stop
         id="stop284"
         offset="0"
         style="stop-opacity:1;stop-color:#c4d0c8" /><stop
         id="stop286"
         offset="1"
         style="stop-opacity:1;stop-color:#525b5c" /></linearGradient></defs><g
     transform="matrix(1.3333333,0,0,-1.3333333,0,311.69333)"
     id="g10"><g
       transform="scale(0.1)"
       id="g12"><g
         id="g14"><g
           clip-path="url(#clipPath20)"
           id="g16"><path
             id="path22"
             style="fill:#ce2529;fill-opacity:1;fill-rule:nonzero;stroke:none"
             d="m 1413.96,252.352 c -0.42,139.449 111.96,251.949 252.35,252.187 136.95,-0.238 249.43,-112.738 252.17,-252.187 C 1915.74,114.461 1803.26,1.96094 1666.31,0 1525.92,1.96094 1413.54,114.461 1413.96,252.352 Z M 1666.31,92.9688 c 75.78,1.1796 138.51,72.3902 139.3,159.3832 -0.79,88.668 -63.52,159.878 -139.3,159.367 -79.06,0.511 -141.95,-70.699 -139.45,-159.367 -2.5,-86.993 60.39,-158.2036 139.45,-159.3832" /><path
             id="path24"
             style="fill:#ce2529;fill-opacity:1;fill-rule:nonzero;stroke:none"
             d="M 2203.91,398.441 V 13.2891 H 2097.77 V 398.441 h -152.73 v 86.168 H 2350 v -86.168 h -146.09" /><path
             id="path26"
             style="fill:#ce2529;fill-opacity:1;fill-rule:nonzero;stroke:none"
             d="m 2476.05,119.648 v 0 L 2436.33,13.2891 h -126.06 l 199.11,471.3199 h 132.69 L 2834.65,13.2891 h -126.06 l -39.84,106.3589 z m 99.73,79.571 h 66.29 l -66.29,172.66 -66.4,-172.66 h 66.4" /><path
             id="path28"
             style="fill:#ce2529;fill-opacity:1;fill-rule:nonzero;stroke:none"
             d="M 252.227,398.441 V 13.2891 H 146.016 V 398.441 H 0 v 86.168 H 398.32 V 398.441 H 252.227" /><path
             id="path30"
             style="fill:#ce2529;fill-opacity:1;fill-rule:nonzero;stroke:none"
             d="M 424.883,252.352 C 425.078,391.801 537.422,504.301 677.02,504.539 814.824,504.301 927.324,391.801 929.355,252.352 927.324,114.461 814.824,1.96094 677.02,0 537.422,1.96094 425.078,114.461 424.883,252.352 Z M 677.02,92.9688 C 753.699,94.1484 816.387,165.359 816.465,252.352 816.387,341.02 753.699,412.23 677.02,411.719 598.738,412.23 535.938,341.02 537.773,252.352 535.938,165.359 598.738,94.1484 677.02,92.9688" /><path
             id="path32"
             style="fill:#ce2529;fill-opacity:1;fill-rule:nonzero;stroke:none"
             d="m 1168.34,13.2891 h 53.05 V 192.582 l 185.93,292.027 H 1287.87 L 1168.34,285.551 1055.45,484.609 H 929.355 L 1115.29,192.582 V 13.2891 h 53.05" /><path
             id="path34"
             style="fill:#0c0a07;fill-opacity:1;fill-rule:nonzero;stroke:none"
             d="m 85.4688,1522.11 c 0,-449.72 584.7582,-815.622 1303.4912,-815.622 718.74,0 1303.5,365.902 1303.5,815.622 0,449.75 -584.76,815.6 -1303.5,815.6 -718.733,0 -1303.4912,-365.85 -1303.4912,-815.6 z m 40.0002,0 c 0,427.6 566.789,775.52 1263.491,775.52 696.7,0 1263.5,-347.92 1263.5,-775.52 0,-427.73 -566.8,-775.622 -1263.5,-775.622 -696.702,0 -1263.491,347.892 -1263.491,775.622" /><path
             id="path36"
             style="fill:#0c0a07;fill-opacity:1;fill-rule:nonzero;stroke:none"
             d="m 1265.8,2189.44 c -305.077,-18.64 -526.667,-99.49 -564.445,-206.02 -3.906,-11.05 -5.859,-22.26 -5.859,-33.44 0,-17.96 5.078,-35.93 15.156,-53.12 42.344,-72.15 173.782,-131.64 360.808,-163.56 l 19.81,-3.24 3.32,19.77 c 30.7,187.26 98.09,334.53 184.96,404.06 l 49.22,39.45 z M 745.188,1917.02 c -6.528,11.09 -9.727,22.03 -9.727,32.81 0,6.8 1.172,13.44 3.594,20.19 28.828,81.37 224.675,152.46 474.875,175.39 -71.37,-80.74 -126.25,-210.82 -154.89,-368.86 -162.575,30.08 -279.477,81.87 -313.852,140.47 z m -43.833,66.4 v 0" /><path
             id="path38"
             style="fill:#0c0a07;fill-opacity:1;fill-rule:nonzero;stroke:none"
             d="m 1210.02,1737.88 -3.91,-21.76 22.07,-1.68 c 52.35,-3.91 106.45,-6.02 160.75,-6.02 54.33,0 108.47,2.11 160.82,6.02 l 22.03,1.68 -3.91,21.76 c -30.08,168.98 -97.03,269.92 -178.91,269.92 -81.95,0 -148.86,-100.94 -178.94,-269.92 z m 178.94,229.92 c 55.98,0 107.66,-83.83 134.89,-214.69 -44.26,-2.89 -89.34,-4.69 -134.92,-4.69 -45.51,0 -90.63,1.8 -134.85,4.69 27.15,130.86 78.91,214.69 134.88,214.69" /><path
             id="path40"
             style="fill:#0c0a07;fill-opacity:1;fill-rule:nonzero;stroke:none"
             d="m 1498.34,2153.89 c 86.84,-69.53 154.3,-216.8 185,-404.06 l 3.28,-19.77 19.77,3.24 c 187.11,31.92 318.61,91.41 360.8,163.56 16.4,27.73 19.53,57.66 9.37,86.56 -37.77,106.53 -259.35,187.38 -564.43,206.02 l -62.89,3.9 z m 65.74,-8.48 c 250.12,-22.93 445.96,-94.14 474.71,-175.39 2.5,-6.75 3.67,-13.39 3.67,-20.19 0,-10.78 -3.28,-21.72 -9.65,-32.81 -34.49,-58.6 -151.42,-110.39 -313.92,-140.47 -28.64,158.04 -83.44,288.12 -154.81,368.86" /><path
             id="path42"
             style="fill:#0c0a07;fill-opacity:1;fill-rule:nonzero;stroke:none"
             d="M 508.32,1904.91 C 371.211,1790.06 298.75,1653.62 298.75,1510.27 c 0,-337.22 411.199,-622.258 956.43,-662.879 l 60.89,-4.571 -46.36,39.61 c -119.46,102.179 -193.64,344.65 -193.64,632.8 l 1.25,68.07 -16.71,3.4 c -286.794,51.41 -490.813,172 -519.868,307.03 l -6.953,32.43 z M 338.789,1510.27 c 0,122.92 59.961,240.89 172.539,343.35 52.449,-136.45 248.43,-250.12 525.452,-303.01 -0.35,-15.61 -0.67,-35.38 -0.67,-35.38 0,-267.18 63.4,-497.92 167.97,-622.41 -496.783,53.008 -865.291,312.5 -865.291,617.45" /><path
             id="path44"
             style="fill:#0c0a07;fill-opacity:1;fill-rule:nonzero;stroke:none"
             d="m 1193.73,1546.31 -0.12,-7.25 c 0,-267.84 83.99,-469.91 195.35,-469.91 111.33,0 195.32,202.07 195.32,469.91 l -0.28,28.89 -21.48,-1.83 c -56.64,-4.96 -114.96,-7.42 -173.56,-7.42 -58.59,0 -116.99,2.46 -173.47,7.42 l -21.56,1.95 z m 350.31,-21.47 c -3,-249.21 -81.52,-415.73 -155.08,-415.73 -73.63,0 -152.14,166.52 -155.07,415.73 50.86,-3.75 102.81,-6.09 155.07,-6.09 52.35,0 104.15,2.34 155.08,6.09" /><path
             id="path46"
             style="fill:#0c0a07;fill-opacity:1;fill-rule:nonzero;stroke:none"
             d="M 2237.11,1893.73 C 2208.09,1758.7 2004.02,1638.11 1717.32,1586.7 l -16.79,-3.12 1.33,-68.35 c 0,-288.15 -74.22,-530.621 -193.64,-632.8 l -46.36,-39.61 60.82,4.571 c 545.29,40.621 956.5,325.659 956.5,662.879 0,143.35 -72.54,279.79 -209.65,394.64 l -25.39,21.25 z m 29.41,-40.11 c 112.66,-102.46 172.66,-220.43 172.66,-343.35 0,-304.95 -368.48,-564.442 -865.33,-617.45 104.57,124.49 167.97,355.23 167.97,622.41 0,0 -0.39,19.77 -0.67,35.38 276.94,52.89 472.91,166.56 525.37,303.01" /></g></g><g
         id="g48"><g
           clip-path="url(#clipPath54)"
           id="g50"><path
             id="path56"
             style="fill:#edf2ee;fill-opacity:1;fill-rule:nonzero;stroke:none"
             d="m 2251.29,1996.7 c 1.84,-5.07 3.51,-10.27 4.84,-15.47 7.54,-29.96 5.98,-59.37 -3.79,-88.04 130.08,-107.27 206.76,-239.57 206.76,-382.92 0,-357.8 -479.14,-647.918 -1070.14,-647.918 -591.038,0 -1070.132,290.118 -1070.132,647.918 0,143.23 76.758,275.65 206.68,382.92 -9.688,28.67 -11.25,58.08 -3.711,88.04 1.367,5.32 3.594,10.94 6.211,16.53 -177.5,-126.45 -285.117,-292.19 -285.117,-473.7 0,-396.32 513.078,-717.572 1146.069,-717.572 632.92,0 1146.08,321.252 1146.08,717.572 0,181.12 -107.19,346.47 -283.75,472.64" /><path
             id="path66"
             style="fill:url(#linearGradient64);fill-opacity:1;fill-rule:nonzero;stroke:none"
             d="m 2251.29,1996.7 c 1.84,-5.07 3.51,-10.27 4.84,-15.47 7.54,-29.96 5.98,-59.37 -3.79,-88.04 130.08,-107.27 206.76,-239.57 206.76,-382.92 0,-357.8 -479.14,-647.918 -1070.14,-647.918 -591.038,0 -1070.132,290.118 -1070.132,647.918 0,143.23 76.758,275.65 206.68,382.92 -9.688,28.67 -11.25,58.08 -3.711,88.04 1.367,5.32 3.594,10.94 6.211,16.53 -177.5,-126.45 -285.117,-292.19 -285.117,-473.7 0,-396.32 513.078,-717.572 1146.069,-717.572 632.92,0 1146.08,321.252 1146.08,717.572 0,181.12 -107.19,346.47 -283.75,472.64" /></g></g><g
         id="g68"><g
           clip-path="url(#clipPath74)"
           id="g70"><path
             id="path76"
             style="fill:#edf2ee;fill-opacity:1;fill-rule:nonzero;stroke:none"
             d="m 1548.18,1734.36 c -50.5,-3.79 -103.75,-5.86 -159.25,-5.86 -55.47,0 -108.68,2.07 -159.18,5.86 h -0.16 l -33.01,-23.98 c 60.9,-5.32 125.2,-8.33 192.38,-8.33 67.19,0 131.49,3.01 192.43,8.33 z m 585.41,251.41 c -40.23,132.96 -371.85,230.62 -744.63,230.62 -372.69,0 -704.319,-97.66 -744.558,-230.62 -34.922,-115.36 155.703,-222.11 456.438,-264.46 l -26.13,31.8 c -243.284,41.41 -387.886,129.69 -354.522,223.55 40.425,113.95 334.092,196.49 668.742,196.49 334.64,0 628.37,-82.54 668.77,-196.49 33.32,-93.86 -111.22,-182.14 -354.56,-223.55 l -26.05,-31.8 c 300.64,42.35 491.39,149.1 456.5,264.46" /><path
             id="path86"
             style="fill:url(#linearGradient84);fill-opacity:1;fill-rule:nonzero;stroke:none"
             d="m 1548.18,1734.36 c -50.5,-3.79 -103.75,-5.86 -159.25,-5.86 -55.47,0 -108.68,2.07 -159.18,5.86 h -0.16 l -33.01,-23.98 c 60.9,-5.32 125.2,-8.33 192.38,-8.33 67.19,0 131.49,3.01 192.43,8.33 z m 585.41,251.41 c -40.23,132.96 -371.85,230.62 -744.63,230.62 -372.69,0 -704.319,-97.66 -744.558,-230.62 -34.922,-115.36 155.703,-222.11 456.438,-264.46 l -26.13,31.8 c -243.284,41.41 -387.886,129.69 -354.522,223.55 40.425,113.95 334.092,196.49 668.742,196.49 334.64,0 628.37,-82.54 668.77,-196.49 33.32,-93.86 -111.22,-182.14 -354.56,-223.55 l -26.05,-31.8 c 300.64,42.35 491.39,149.1 456.5,264.46" /></g></g><g
         id="g88"><g
           clip-path="url(#clipPath94)"
           id="g90"><path
             id="path96"
             style="fill:#edf2ee;fill-opacity:1;fill-rule:nonzero;stroke:none"
             d="m 1230.14,1734.36 c 27.93,155.19 88.51,252.19 158.79,252.19 70.35,0 130.89,-97 158.86,-252.19 h 0.55 l 32.66,-23.71 c -27.58,204.96 -103.13,335.94 -192.04,335.94 -88.98,0 -164.49,-130.98 -192.03,-335.94 l 32.66,23.71 h 0.55" /><path
             id="path106"
             style="fill:url(#linearGradient104);fill-opacity:1;fill-rule:nonzero;stroke:none"
             d="m 1230.14,1734.36 c 27.93,155.19 88.51,252.19 158.79,252.19 70.35,0 130.89,-97 158.86,-252.19 h 0.55 l 32.66,-23.71 c -27.58,204.96 -103.13,335.94 -192.04,335.94 -88.98,0 -164.49,-130.98 -192.03,-335.94 l 32.66,23.71 h 0.55" /></g></g><g
         id="g108"><g
           clip-path="url(#clipPath114)"
           id="g110"><path
             id="path116"
             style="fill:#edf2ee;fill-opacity:1;fill-rule:nonzero;stroke:none"
             d="m 1590.92,1594.52 -26.72,-48.32 c 0,-3.52 0.16,-7.14 0.16,-10.81 0,-257.26 -78.68,-452.34 -175.43,-452.34 -96.84,0 -175.36,195.08 -175.36,452.34 0,4.06 0.08,8.07 0.16,11.98 l -26.76,47.15 c -0.78,-19.3 -1.17,-38.83 -1.17,-58.86 0,-291.67 90.94,-512.61 203.16,-512.61 112.23,0 203.25,220.94 203.25,512.61 0,20.03 -0.51,39.56 -1.29,58.86" /><path
             id="path126"
             style="fill:url(#linearGradient124);fill-opacity:1;fill-rule:nonzero;stroke:none"
             d="m 1590.92,1594.52 -26.72,-48.32 c 0,-3.52 0.16,-7.14 0.16,-10.81 0,-257.26 -78.68,-452.34 -175.43,-452.34 -96.84,0 -175.36,195.08 -175.36,452.34 0,4.06 0.08,8.07 0.16,11.98 l -26.76,47.15 c -0.78,-19.3 -1.17,-38.83 -1.17,-58.86 0,-291.67 90.94,-512.61 203.16,-512.61 112.23,0 203.25,220.94 203.25,512.61 0,20.03 -0.51,39.56 -1.29,58.86" /></g></g><g
         id="g128"><g
           clip-path="url(#clipPath134)"
           id="g130"><path
             id="path136"
             style="fill:#edf2ee;fill-opacity:1;fill-rule:nonzero;stroke:none"
             d="m 1101.27,1721.2 c 38.44,284.88 152.69,495.19 287.69,495.19 -144.72,0 -268.08,-186.33 -313.86,-463.83 l 25.78,-31.36 h 0.39" /><path
             id="path146"
             style="fill:url(#linearGradient144);fill-opacity:1;fill-rule:nonzero;stroke:none"
             d="m 1101.27,1721.2 c 38.44,284.88 152.69,495.19 287.69,495.19 -144.72,0 -268.08,-186.33 -313.86,-463.83 l 25.78,-31.36 h 0.39" /></g></g><g
         id="g148"><g
           clip-path="url(#clipPath154)"
           id="g150"><path
             id="path156"
             style="fill:#edf2ee;fill-opacity:1;fill-rule:nonzero;stroke:none"
             d="m 1676.7,1721.2 h 0.27 l 25.78,31.36 c -45.7,277.5 -169.14,463.83 -313.79,463.83 135,0 249.34,-210.31 287.74,-495.19" /><path
             id="path166"
             style="fill:url(#linearGradient164);fill-opacity:1;fill-rule:nonzero;stroke:none"
             d="m 1676.7,1721.2 h 0.27 l 25.78,31.36 c -45.7,277.5 -169.14,463.83 -313.79,463.83 135,0 249.34,-210.31 287.74,-495.19" /></g></g><g
         id="g168"><g
           clip-path="url(#clipPath174)"
           id="g170"><path
             id="path176"
             style="fill:#edf2ee;fill-opacity:1;fill-rule:nonzero;stroke:none"
             d="m 1720.72,1567.17 -32.81,39.18 h -0.27 c 1.83,-31.13 2.89,-62.77 2.89,-94.91 0,-389.33 -135.04,-704.952 -301.57,-704.952 186.72,0 332.82,292.732 332.82,704.952 0,18.87 -0.39,37.37 -1.06,55.73" /><path
             id="path186"
             style="fill:url(#linearGradient184);fill-opacity:1;fill-rule:nonzero;stroke:none"
             d="m 1720.72,1567.17 -32.81,39.18 h -0.27 c 1.83,-31.13 2.89,-62.77 2.89,-94.91 0,-389.33 -135.04,-704.952 -301.57,-704.952 186.72,0 332.82,292.732 332.82,704.952 0,18.87 -0.39,37.37 -1.06,55.73" /></g></g><g
         id="g188"><g
           clip-path="url(#clipPath194)"
           id="g190"><path
             id="path196"
             style="fill:#edf2ee;fill-opacity:1;fill-rule:nonzero;stroke:none"
             d="m 1087.48,1511.44 c 0,32.14 1.06,63.78 2.85,94.91 h -0.23 l -32.89,-39.06 c -0.67,-18.48 -1.1,-36.98 -1.1,-55.85 0,-412.22 146.21,-704.952 332.85,-704.952 -166.44,0 -301.48,315.622 -301.48,704.952" /><path
             id="path206"
             style="fill:url(#linearGradient204);fill-opacity:1;fill-rule:nonzero;stroke:none"
             d="m 1087.48,1511.44 c 0,32.14 1.06,63.78 2.85,94.91 h -0.23 l -32.89,-39.06 c -0.67,-18.48 -1.1,-36.98 -1.1,-55.85 0,-412.22 146.21,-704.952 332.85,-704.952 -166.44,0 -301.48,315.622 -301.48,704.952" /></g></g><g
         id="g208"><g
           clip-path="url(#clipPath214)"
           id="g210"><path
             id="path216"
             style="fill:#313634;fill-opacity:1;fill-rule:nonzero;stroke:none"
             d="m 2252.34,1893.19 c 49.73,-41.02 91.68,-85.78 124.5,-133.32 -11.61,77.34 -42.46,148.43 -87.5,208.2 -12.39,9.77 -25,19.41 -38.05,28.63 1.84,-5.07 3.51,-10.27 4.84,-15.47 7.54,-29.96 5.98,-59.37 -3.79,-88.04" /><path
             id="path218"
             style="fill:#313634;fill-opacity:1;fill-rule:nonzero;stroke:none"
             d="m 525.508,1893.19 c -9.688,28.67 -11.25,58.08 -3.711,88.04 1.367,5.32 3.594,10.94 6.211,16.53 -13.555,-9.77 -26.641,-19.65 -39.414,-29.69 -44.961,-59.77 -75.821,-130.86 -87.5,-208.2 32.812,47.54 74.687,92.3 124.414,133.32" /></g></g><g
         id="g220"><g
           clip-path="url(#clipPath226)"
           id="g222"><path
             id="path228"
             style="fill:#edf2ee;fill-opacity:1;fill-rule:nonzero;stroke:none"
             d="m 105.469,1522.11 c 0,439.32 574.597,795.56 1283.491,795.56 708.81,0 1283.42,-356.24 1283.42,-795.56 0,-439.45 -574.61,-795.54 -1283.42,-795.54 -708.894,0 -1283.491,356.09 -1283.491,795.54 z M 1388.96,806.488 c 632.92,0 1146.08,321.252 1146.08,717.572 0,396.35 -513.16,717.72 -1146.08,717.72 -632.991,0 -1146.108,-321.37 -1146.108,-717.72 0,-396.32 513.117,-717.572 1146.108,-717.572" /><path
             id="path236"
             style="fill:url(#linearGradient234);fill-opacity:1;fill-rule:nonzero;stroke:none"
             d="m 105.469,1522.11 c 0,439.32 574.597,795.56 1283.491,795.56 708.81,0 1283.42,-356.24 1283.42,-795.56 0,-439.45 -574.61,-795.54 -1283.42,-795.54 -708.894,0 -1283.491,356.09 -1283.491,795.54 z M 1388.96,806.488 c 632.92,0 1146.08,321.252 1146.08,717.572 0,396.35 -513.16,717.72 -1146.08,717.72 -632.991,0 -1146.108,-321.37 -1146.108,-717.72 0,-396.32 513.117,-717.572 1146.108,-717.572" /></g></g><g
         id="g238"><g
           clip-path="url(#clipPath244)"
           id="g240"><path
             id="path246"
             style="fill:#edf2ee;fill-opacity:1;fill-rule:nonzero;stroke:none"
             d="m 1087.48,1511.44 c 0,385.26 135.04,704.95 301.48,704.95 166.53,0 301.57,-319.69 301.57,-704.95 0,-389.33 -135.04,-704.952 -301.57,-704.952 -166.52,0 -301.48,315.622 -301.48,704.952 z m 301.48,-488.39 c 112.23,0 203.25,220.94 203.25,512.49 0,302.57 -91.02,511.05 -203.25,511.05 -112.22,0 -203.16,-208.48 -203.16,-511.05 0,-291.55 90.94,-512.49 203.16,-512.49" /><path
             id="path254"
             style="fill:url(#linearGradient252);fill-opacity:1;fill-rule:nonzero;stroke:none"
             d="m 1087.48,1511.44 c 0,385.26 135.04,704.95 301.48,704.95 166.53,0 301.57,-319.69 301.57,-704.95 0,-389.33 -135.04,-704.952 -301.57,-704.952 -166.52,0 -301.48,315.622 -301.48,704.952 z m 301.48,-488.39 c 112.23,0 203.25,220.94 203.25,512.49 0,302.57 -91.02,511.05 -203.25,511.05 -112.22,0 -203.16,-208.48 -203.16,-511.05 0,-291.55 90.94,-512.49 203.16,-512.49" /></g></g><g
         id="g256"><g
           clip-path="url(#clipPath262)"
           id="g258"><path
             id="path264"
             style="fill:#edf2ee;fill-opacity:1;fill-rule:nonzero;stroke:none"
             d="m 521.797,1981.23 c 33.086,130.98 433.144,321.6 867.163,321.6 433.99,0 820.3,-136.2 867.17,-321.6 52.46,-207.81 -333.08,-395.85 -867.17,-395.85 -534.175,0 -919.702,188.04 -867.163,395.85 z m 867.163,235.16 c -372.69,0 -704.319,-97.66 -744.558,-230.62 -45.078,-148.95 285.93,-283.72 744.558,-283.72 458.72,0 789.67,134.77 744.63,283.72 -40.23,132.96 -371.85,230.62 -744.63,230.62" /><path
             id="path272"
             style="fill:url(#linearGradient270);fill-opacity:1;fill-rule:nonzero;stroke:none"
             d="m 521.797,1981.23 c 33.086,130.98 433.144,321.6 867.163,321.6 433.99,0 820.3,-136.2 867.17,-321.6 52.46,-207.81 -333.08,-395.85 -867.17,-395.85 -534.175,0 -919.702,188.04 -867.163,395.85 z m 867.163,235.16 c -372.69,0 -704.319,-97.66 -744.558,-230.62 -45.078,-148.95 285.93,-283.72 744.558,-283.72 458.72,0 789.67,134.77 744.63,283.72 -40.23,132.96 -371.85,230.62 -744.63,230.62" /></g></g><g
         id="g274"><g
           clip-path="url(#clipPath280)"
           id="g276"><path
             id="path282"
             style="fill:#c4d0c8;fill-opacity:1;fill-rule:nonzero;stroke:none"
             d="m 1186.58,1594.91 0.24,-0.16 27.54,-48.55 c 56.05,-4.8 114.33,-7.53 174.6,-7.53 60.55,0 118.99,2.73 175.4,7.64 l 26.79,48.44 0.16,0.16 c -64.45,-6.14 -132.03,-9.53 -202.35,-9.53 -70.31,0 -137.92,3.39 -202.38,9.53 z m 1074.08,341.4 c -6.87,-148.59 -235.27,-280.23 -572.87,-329.84 l 0.12,-0.12 32.93,-39.33 c 330.33,59.37 547.64,205.23 539.82,369.29 z m -1743.394,0 c -7.813,-164.22 209.48,-309.92 539.744,-369.29 l 33.01,39.33 0.08,0.12 c -337.651,49.61 -565.881,181.25 -572.834,329.84" /><path
             id="path290"
             style="fill:url(#linearGradient288);fill-opacity:1;fill-rule:nonzero;stroke:none"
             d="m 1186.58,1594.91 0.24,-0.16 27.54,-48.55 c 56.05,-4.8 114.33,-7.53 174.6,-7.53 60.55,0 118.99,2.73 175.4,7.64 l 26.79,48.44 0.16,0.16 c -64.45,-6.14 -132.03,-9.53 -202.35,-9.53 -70.31,0 -137.92,3.39 -202.38,9.53 z m 1074.08,341.4 c -6.87,-148.59 -235.27,-280.23 -572.87,-329.84 l 0.12,-0.12 32.93,-39.33 c 330.33,59.37 547.64,205.23 539.82,369.29 z m -1743.394,0 c -7.813,-164.22 209.48,-309.92 539.744,-369.29 l 33.01,39.33 0.08,0.12 c -337.651,49.61 -565.881,181.25 -572.834,329.84" /></g></g></g></g></svg>